<?xml version="1.0" standalone="no"?><!DOCTYPE svg PUBLIC "-//W3C//DTD SVG 1.1//EN" "http://www.w3.org/Graphics/SVG/1.1/DTD/svg11.dtd">
<svg width="100%" height="100%" viewBox="0 0 12449 1804" version="1.1" xmlns="http://www.w3.org/2000/svg" xmlns:xlink="http://www.w3.org/1999/xlink" xml:space="preserve" style="fill-rule:evenodd;clip-rule:evenodd;stroke-linejoin:round;stroke-miterlimit:1.41421;">
	<g>
		<path d="M2566.81,1796.82c-157.893,0 -332.119,-92.5579 -434.142,-193.283l229.594,-283.118c61.6493,51.7095 177.926,133.378 267.748,133.378c103.461,0 188.48,-65.321 207.187,-171.504c36.9673,-209.616 -627.746,-299.452 -540.395,-794.909c54.2503,-307.619 328.21,-487.304 622.218,-487.304c190.546,0 383.689,108.892 471.626,258.632l-261.48,201.449c-52.3655,-73.5018 -157.097,-127.948 -255.099,-127.948c-78.9463,0 -163.491,62.6127 -177.898,144.281c-46.0833,261.34 635.774,269.507 540.731,808.52c-57.1263,323.967 -367.914,511.805 -670.088,511.805Z" style="fill:#FFF;fill-rule:nonzero;"/>
		<path d="M4107.43,397.552l-239.52,1358.44l-402.899,0l242.242,-1358.44l-321.216,0l62.8919,-356.634l1045.35,0l-62.8916,356.634l-323.952,0Z" style="fill:#FFF;fill-rule:nonzero;"/>
		<path d="M5044.91,381.218l-106.184,0l-82.5343,468.234c25.7572,8.16692 70.1513,19.056 97.3323,19.056c155.171,0 260.712,-119.781 286.637,-266.784c28.3119,-160.615 -37.3584,-220.506 -195.251,-220.506ZM5134.62,1755.99l-332.664,-598.918l-105.625,598.918l-405.621,0l302.425,-1715.07l449.178,0c375.676,0 683.756,136.115 608.397,563.528c-38.3911,217.783 -202.817,424.677 -420.908,503.624l277.269,465.526l-32.1646,182.393l-340.286,0Z" style="fill:#FFF;fill-rule:nonzero;"/>
		<path d="M5580.44,1755.99l302.383,-1715.07l993.636,0l-61.4397,348.467l-588.015,0l-52.8124,299.452l451.9,0l-62.4034,353.898l-451.9,0l-63.3666,359.356l617.96,0l-62.4034,353.898l-1023.54,0Z" style="fill:#FFF;fill-rule:nonzero;"/><path d="M7561.48,560.889l-220.129,522.68l255.896,0l-35.7669,-522.68ZM7609.35,1755.99l-24.7101,-353.898l-343.009,0l-149.516,353.898l-421.955,0l781.549,-1715.07l400.176,0l179.42,1715.07l-421.955,0Z" style="fill:#FFF;fill-rule:nonzero;"/>
		<path d="M9438.31,1755.99l132.471,-751.366l58.2566,-206.894l-492.902,958.26l-313.063,0l-155.017,-958.26l-11.9642,206.894l-132.47,751.366l-405.622,0l302.383,-1715.07l441.011,0l197.304,1042.65c14.2393,73.5018 9.12986,179.671 9.12986,179.671c0,0 32.3323,-106.169 72.5389,-179.671l562.216,-1042.65l443.733,0l-302.383,1715.07l-405.622,0Z" style="fill:#FFF;fill-rule:nonzero;"/>
		<path d="M430.373,1014.26l493.363,-36.3821l68.4482,104.969l255.211,-1079.97l190.309,1198.28l259.665,-632.409l40.4854,452.319l818.781,37.6933l95.6291,68.4063l-1015.62,46.7676l-287.725,622.134l-135.696,-873.478l-156.804,596.056l-221.134,-350.799l-402.782,-10.4554c-28.8399,88.9073 -112.346,153.187 -210.865,153.187c-122.406,0 -221.636,-99.23 -221.636,-221.636c0,-122.406 99.23,-221.636 221.636,-221.636c96.1994,0 178.084,61.2885 208.737,146.949Z" style="fill:#FFF;"/>
		<path d="M12014.8,1154.91l-400.209,-4.14991l-277.129,451.942l-59.5972,-668.05l-690.08,869.597l-65.7957,-771.092l-86.4432,154.794l-413.118,-14.0721l22.1134,-105.541l303.556,-40.2061l305.567,-485.489l81.4174,766.932l722.789,-908.868l-19.8098,739.374l103.154,-145.119l472.562,43.8596c24.8616,-95.2154 111.455,-165.483 214.461,-165.483c122.406,0 221.636,99.23 221.636,221.636c0,122.406 -99.23,221.636 -221.636,221.636c-101.637,2.27374e-13 -187.295,-68.4124 -213.437,-161.7Z" style="fill:#FFF;"/>
	</g>
</svg>